<mxfile host="app.diagrams.net" agent="Mozilla/5.0 (Windows NT 10.0; Win64; x64) AppleWebKit/537.36 (KHTML, like Gecko) Chrome/135.0.0.0 Safari/537.36" version="26.2.14">
  <diagram name="Page-1" id="AayuUpCktgxmd3Jreh6r">
    <mxGraphModel dx="1106" dy="571" grid="1" gridSize="10" guides="1" tooltips="1" connect="1" arrows="1" fold="1" page="1" pageScale="1" pageWidth="850" pageHeight="1100" math="0" shadow="0">
      <root>
        <mxCell id="0" />
        <mxCell id="1" parent="0" />
        <mxCell id="b29esXDhol74lhKbQ5Z7-54" value="" style="group" vertex="1" connectable="0" parent="1">
          <mxGeometry x="170" y="30" width="504" height="432" as="geometry" />
        </mxCell>
        <mxCell id="b29esXDhol74lhKbQ5Z7-16" style="edgeStyle=orthogonalEdgeStyle;rounded=0;orthogonalLoop=1;jettySize=auto;html=1;exitX=0.5;exitY=1;exitDx=0;exitDy=0;entryX=0.5;entryY=0;entryDx=0;entryDy=0;" edge="1" parent="b29esXDhol74lhKbQ5Z7-54" source="b29esXDhol74lhKbQ5Z7-1" target="b29esXDhol74lhKbQ5Z7-9">
          <mxGeometry relative="1" as="geometry" />
        </mxCell>
        <mxCell id="b29esXDhol74lhKbQ5Z7-1" value="输入包裹相位图像" style="rounded=0;whiteSpace=wrap;html=1;fillColor=none;strokeColor=default;" vertex="1" parent="b29esXDhol74lhKbQ5Z7-54">
          <mxGeometry y="12" width="120" height="40" as="geometry" />
        </mxCell>
        <mxCell id="b29esXDhol74lhKbQ5Z7-17" value="" style="edgeStyle=orthogonalEdgeStyle;rounded=0;orthogonalLoop=1;jettySize=auto;html=1;" edge="1" parent="b29esXDhol74lhKbQ5Z7-54" source="b29esXDhol74lhKbQ5Z7-9" target="b29esXDhol74lhKbQ5Z7-12">
          <mxGeometry relative="1" as="geometry" />
        </mxCell>
        <mxCell id="b29esXDhol74lhKbQ5Z7-9" value="正余弦高斯滤波，掩码生成" style="rounded=0;whiteSpace=wrap;html=1;fillColor=none;strokeColor=default;" vertex="1" parent="b29esXDhol74lhKbQ5Z7-54">
          <mxGeometry y="82" width="120" height="40" as="geometry" />
        </mxCell>
        <mxCell id="b29esXDhol74lhKbQ5Z7-19" value="" style="edgeStyle=orthogonalEdgeStyle;rounded=0;orthogonalLoop=1;jettySize=auto;html=1;" edge="1" parent="b29esXDhol74lhKbQ5Z7-54" source="b29esXDhol74lhKbQ5Z7-12" target="b29esXDhol74lhKbQ5Z7-18">
          <mxGeometry relative="1" as="geometry" />
        </mxCell>
        <mxCell id="b29esXDhol74lhKbQ5Z7-12" value="残差点检测" style="rounded=0;whiteSpace=wrap;html=1;fillColor=none;strokeColor=default;" vertex="1" parent="b29esXDhol74lhKbQ5Z7-54">
          <mxGeometry y="152" width="120" height="40" as="geometry" />
        </mxCell>
        <mxCell id="b29esXDhol74lhKbQ5Z7-23" style="edgeStyle=orthogonalEdgeStyle;rounded=0;orthogonalLoop=1;jettySize=auto;html=1;exitX=0.5;exitY=1;exitDx=0;exitDy=0;entryX=0.5;entryY=0;entryDx=0;entryDy=0;" edge="1" parent="b29esXDhol74lhKbQ5Z7-54" source="b29esXDhol74lhKbQ5Z7-18" target="b29esXDhol74lhKbQ5Z7-22">
          <mxGeometry relative="1" as="geometry" />
        </mxCell>
        <mxCell id="b29esXDhol74lhKbQ5Z7-18" value="枝切线放置" style="whiteSpace=wrap;html=1;fillColor=none;rounded=0;" vertex="1" parent="b29esXDhol74lhKbQ5Z7-54">
          <mxGeometry y="212" width="120" height="40" as="geometry" />
        </mxCell>
        <mxCell id="b29esXDhol74lhKbQ5Z7-27" value="" style="edgeStyle=orthogonalEdgeStyle;rounded=0;orthogonalLoop=1;jettySize=auto;html=1;" edge="1" parent="b29esXDhol74lhKbQ5Z7-54" source="b29esXDhol74lhKbQ5Z7-22">
          <mxGeometry relative="1" as="geometry">
            <mxPoint x="60" y="332" as="targetPoint" />
          </mxGeometry>
        </mxCell>
        <mxCell id="b29esXDhol74lhKbQ5Z7-22" value="洪水填充路径规划" style="whiteSpace=wrap;html=1;fillColor=none;rounded=0;" vertex="1" parent="b29esXDhol74lhKbQ5Z7-54">
          <mxGeometry y="272" width="120" height="40" as="geometry" />
        </mxCell>
        <mxCell id="b29esXDhol74lhKbQ5Z7-33" value="" style="edgeStyle=orthogonalEdgeStyle;rounded=0;orthogonalLoop=1;jettySize=auto;html=1;entryX=0;entryY=0.5;entryDx=0;entryDy=0;" edge="1" parent="b29esXDhol74lhKbQ5Z7-54" source="b29esXDhol74lhKbQ5Z7-28" target="b29esXDhol74lhKbQ5Z7-32">
          <mxGeometry relative="1" as="geometry" />
        </mxCell>
        <mxCell id="b29esXDhol74lhKbQ5Z7-28" value="连通域分析和分割" style="whiteSpace=wrap;html=1;fillColor=none;rounded=0;" vertex="1" parent="b29esXDhol74lhKbQ5Z7-54">
          <mxGeometry y="332" width="120" height="40" as="geometry" />
        </mxCell>
        <mxCell id="b29esXDhol74lhKbQ5Z7-38" value="" style="edgeStyle=orthogonalEdgeStyle;rounded=0;orthogonalLoop=1;jettySize=auto;html=1;" edge="1" parent="b29esXDhol74lhKbQ5Z7-54" source="b29esXDhol74lhKbQ5Z7-32" target="b29esXDhol74lhKbQ5Z7-37">
          <mxGeometry relative="1" as="geometry" />
        </mxCell>
        <mxCell id="b29esXDhol74lhKbQ5Z7-40" style="edgeStyle=orthogonalEdgeStyle;rounded=0;orthogonalLoop=1;jettySize=auto;html=1;exitX=0.5;exitY=1;exitDx=0;exitDy=0;" edge="1" parent="b29esXDhol74lhKbQ5Z7-54" source="b29esXDhol74lhKbQ5Z7-32" target="b29esXDhol74lhKbQ5Z7-39">
          <mxGeometry relative="1" as="geometry" />
        </mxCell>
        <mxCell id="b29esXDhol74lhKbQ5Z7-32" value="存在多个连通域" style="rhombus;whiteSpace=wrap;html=1;fillColor=none;rounded=0;" vertex="1" parent="b29esXDhol74lhKbQ5Z7-54">
          <mxGeometry x="170" y="12" width="170" height="40" as="geometry" />
        </mxCell>
        <mxCell id="b29esXDhol74lhKbQ5Z7-36" value="否" style="text;html=1;align=center;verticalAlign=middle;resizable=0;points=[];autosize=1;strokeColor=none;fillColor=none;" vertex="1" parent="b29esXDhol74lhKbQ5Z7-54">
          <mxGeometry x="260" y="70" width="40" height="30" as="geometry" />
        </mxCell>
        <mxCell id="b29esXDhol74lhKbQ5Z7-43" value="" style="edgeStyle=orthogonalEdgeStyle;rounded=0;orthogonalLoop=1;jettySize=auto;html=1;" edge="1" parent="b29esXDhol74lhKbQ5Z7-54" source="b29esXDhol74lhKbQ5Z7-37" target="b29esXDhol74lhKbQ5Z7-42">
          <mxGeometry relative="1" as="geometry" />
        </mxCell>
        <mxCell id="b29esXDhol74lhKbQ5Z7-37" value="连通域内状态空间建模" style="whiteSpace=wrap;html=1;fillColor=none;rounded=0;" vertex="1" parent="b29esXDhol74lhKbQ5Z7-54">
          <mxGeometry x="384" y="7" width="120" height="50" as="geometry" />
        </mxCell>
        <mxCell id="b29esXDhol74lhKbQ5Z7-45" value="" style="edgeStyle=orthogonalEdgeStyle;rounded=0;orthogonalLoop=1;jettySize=auto;html=1;" edge="1" parent="b29esXDhol74lhKbQ5Z7-54" source="b29esXDhol74lhKbQ5Z7-39" target="b29esXDhol74lhKbQ5Z7-44">
          <mxGeometry relative="1" as="geometry" />
        </mxCell>
        <mxCell id="b29esXDhol74lhKbQ5Z7-39" value="全局状态空间建模" style="rounded=0;whiteSpace=wrap;html=1;fillColor=none;strokeColor=default;" vertex="1" parent="b29esXDhol74lhKbQ5Z7-54">
          <mxGeometry x="195" y="121" width="120" height="40" as="geometry" />
        </mxCell>
        <mxCell id="b29esXDhol74lhKbQ5Z7-41" value="是" style="text;html=1;align=center;verticalAlign=middle;resizable=0;points=[];autosize=1;strokeColor=none;fillColor=none;" vertex="1" parent="b29esXDhol74lhKbQ5Z7-54">
          <mxGeometry x="330" width="40" height="30" as="geometry" />
        </mxCell>
        <mxCell id="b29esXDhol74lhKbQ5Z7-48" value="" style="edgeStyle=orthogonalEdgeStyle;rounded=0;orthogonalLoop=1;jettySize=auto;html=1;" edge="1" parent="b29esXDhol74lhKbQ5Z7-54" source="b29esXDhol74lhKbQ5Z7-42" target="b29esXDhol74lhKbQ5Z7-47">
          <mxGeometry relative="1" as="geometry" />
        </mxCell>
        <mxCell id="b29esXDhol74lhKbQ5Z7-42" value="无迹卡尔曼状态预测和测量更新" style="whiteSpace=wrap;html=1;fillColor=none;rounded=0;" vertex="1" parent="b29esXDhol74lhKbQ5Z7-54">
          <mxGeometry x="384" y="120" width="120" height="40" as="geometry" />
        </mxCell>
        <mxCell id="b29esXDhol74lhKbQ5Z7-50" value="" style="edgeStyle=orthogonalEdgeStyle;rounded=0;orthogonalLoop=1;jettySize=auto;html=1;" edge="1" parent="b29esXDhol74lhKbQ5Z7-54" source="b29esXDhol74lhKbQ5Z7-44" target="b29esXDhol74lhKbQ5Z7-49">
          <mxGeometry relative="1" as="geometry" />
        </mxCell>
        <mxCell id="b29esXDhol74lhKbQ5Z7-44" value="状态预测与测量更新" style="whiteSpace=wrap;html=1;fillColor=none;rounded=0;" vertex="1" parent="b29esXDhol74lhKbQ5Z7-54">
          <mxGeometry x="195" y="232" width="120" height="50" as="geometry" />
        </mxCell>
        <mxCell id="b29esXDhol74lhKbQ5Z7-51" style="edgeStyle=orthogonalEdgeStyle;rounded=0;orthogonalLoop=1;jettySize=auto;html=1;exitX=0.5;exitY=1;exitDx=0;exitDy=0;entryX=0.5;entryY=0;entryDx=0;entryDy=0;" edge="1" parent="b29esXDhol74lhKbQ5Z7-54" source="b29esXDhol74lhKbQ5Z7-47" target="b29esXDhol74lhKbQ5Z7-49">
          <mxGeometry relative="1" as="geometry" />
        </mxCell>
        <mxCell id="b29esXDhol74lhKbQ5Z7-47" value="连通域相位一致性处理" style="whiteSpace=wrap;html=1;fillColor=none;rounded=0;" vertex="1" parent="b29esXDhol74lhKbQ5Z7-54">
          <mxGeometry x="384" y="236.5" width="120" height="45.5" as="geometry" />
        </mxCell>
        <mxCell id="b29esXDhol74lhKbQ5Z7-53" value="" style="edgeStyle=orthogonalEdgeStyle;rounded=0;orthogonalLoop=1;jettySize=auto;html=1;" edge="1" parent="b29esXDhol74lhKbQ5Z7-54" source="b29esXDhol74lhKbQ5Z7-49" target="b29esXDhol74lhKbQ5Z7-52">
          <mxGeometry relative="1" as="geometry" />
        </mxCell>
        <mxCell id="b29esXDhol74lhKbQ5Z7-49" value="最终相位拼接" style="whiteSpace=wrap;html=1;fillColor=none;rounded=0;" vertex="1" parent="b29esXDhol74lhKbQ5Z7-54">
          <mxGeometry x="290" y="322" width="120" height="30" as="geometry" />
        </mxCell>
        <mxCell id="b29esXDhol74lhKbQ5Z7-52" value="输出展开相位" style="whiteSpace=wrap;html=1;fillColor=none;rounded=0;" vertex="1" parent="b29esXDhol74lhKbQ5Z7-54">
          <mxGeometry x="290" y="372" width="120" height="35" as="geometry" />
        </mxCell>
      </root>
    </mxGraphModel>
  </diagram>
</mxfile>
